<?xml version="1.0" standalone="no"?>
<!DOCTYPE svg PUBLIC "-//W3C//DTD SVG 20010904//EN"
 "http://www.w3.org/TR/2001/REC-SVG-20010904/DTD/svg10.dtd">
<svg version="1.0" xmlns="http://www.w3.org/2000/svg"
 width="184.000000pt" height="184.000000pt" viewBox="0 0 184.000000 184.000000"
 preserveAspectRatio="xMidYMid meet">
<metadata>
Created by potrace 1.14, written by Peter Selinger 2001-2017
</metadata>
<g transform="translate(0.000000,184.000000) scale(0.100000,-0.100000)"
fill="#000000" stroke="none">
<path d="M494 1820 c-31 -12 -48 -63 -45 -134 l1 -29 36 39 c20 22 26 26 15
10 -26 -36 -26 -48 -2 -63 39 -24 95 6 106 57 6 28 39 70 54 70 5 0 20 -9 35
-21 24 -19 26 -19 26 -2 -1 49 -159 100 -226 73z"/>
<path d="M927 1646 c-87 -25 -129 -108 -126 -250 2 -93 11 -114 28 -66 11 34
112 140 133 140 7 0 3 -7 -9 -15 -34 -24 -83 -90 -89 -122 -5 -25 -1 -31 33
-48 21 -11 47 -20 58 -19 11 1 30 2 42 3 39 2 88 60 112 133 24 74 66 118 128
139 18 6 33 14 33 19 0 8 -71 41 -144 66 -22 8 -62 17 -90 20 -28 3 -55 7 -61
8 -5 2 -27 -2 -48 -8z"/>
<path d="M335 1616 c57 -25 170 -104 238 -166 114 -105 218 -261 284 -425 19
-47 61 -223 71 -300 16 -113 11 -286 -10 -378 -22 -100 -75 -210 -134 -283
-24 -29 -44 -56 -44 -59 0 -3 46 -4 103 -3 l102 3 37 74 c68 135 100 359 76
516 -16 106 -19 121 -34 185 -54 239 -163 439 -324 599 -89 88 -144 131 -215
171 -74 42 -154 80 -167 80 -7 -1 1 -7 17 -14z"/>
<path d="M1230 1524 c-25 -14 -25 -14 -2 -15 12 -1 27 -3 32 -4 6 -1 14 -3 18
-4 5 0 15 -12 22 -26 7 -14 17 -25 22 -25 13 0 9 65 -4 78 -16 16 -56 14 -88
-4z"/>
<path d="M414 1456 c-11 -8 -26 -33 -33 -56 -8 -26 -22 -47 -40 -58 -15 -9
-30 -21 -32 -26 -6 -12 90 -46 129 -46 69 0 94 33 98 125 2 49 0 57 -9 41 -7
-10 -22 -31 -35 -45 l-23 -26 21 35 c25 44 25 44 -5 58 -34 16 -46 15 -71 -2z"/>
<path d="M267 1363 c-11 -10 6 -33 24 -33 10 0 19 3 19 8 0 10 -37 32 -43 25z"/>
<path d="M624 1036 c-42 -23 -53 -38 -80 -109 -31 -85 -60 -119 -127 -151
l-49 -23 54 -22 c29 -12 62 -26 73 -31 40 -19 145 -38 190 -34 67 5 106 31
135 89 21 42 25 66 27 153 2 101 -4 123 -24 80 -15 -32 -91 -116 -117 -129
-14 -8 -9 1 15 27 36 38 69 93 69 114 0 6 -15 19 -32 30 -37 22 -100 25 -134
6z"/>
<path d="M320 838 c0 -46 24 -72 58 -63 30 7 75 37 52 34 -36 -4 -53 3 -81 33
l-29 32 0 -36z"/>
<path d="M1213 851 c-17 -11 -44 -39 -61 -63 -30 -44 -76 -157 -68 -165 3 -3
17 4 33 14 27 19 56 33 78 38 66 17 69 16 30 -3 -22 -10 -54 -31 -72 -46 l-32
-27 22 -34 c12 -19 40 -44 63 -56 58 -32 105 -21 164 38 66 67 85 76 162 82
l70 6 -34 40 c-145 173 -263 231 -355 176z"/>
<path d="M1530 608 c0 -4 5 -8 10 -8 22 0 50 -41 50 -72 0 -29 1 -31 16 -17
22 23 28 73 9 89 -17 14 -85 21 -85 8z"/>
</g>
</svg>
